<svg xmlns="http://www.w3.org/2000/svg" width="256" height="256" viewBox="0 0 100 100"><rect width="100" height="100" rx="20" fill="#090909"></rect><path d="M6.76 64.28L6.76 64.28Q4.60 64.28 3.75 63.55Q2.90 62.81 2.90 60.88L2.90 60.88L2.90 35.99Q3.40 35.90 4.35 35.76Q5.29 35.63 6.25 35.63L6.25 35.63Q8.32 35.63 9.22 36.31Q10.12 37.00 10.12 39.03L10.12 39.03L10.12 63.91Q9.61 64.05 8.69 64.17Q7.77 64.28 6.76 64.28ZM38.87 43.31L38.87 43.31Q38.87 45.38 37.74 46.87Q36.61 48.37 34.50 49.20L34.50 49.20Q37.17 50.07 38.50 51.77Q39.83 53.47 39.83 55.86L39.83 55.86Q39.83 60.33 36.55 62.49Q33.26 64.65 27.05 64.65L27.05 64.65Q26.22 64.65 25.18 64.61Q24.15 64.56 23.07 64.44Q21.99 64.33 20.91 64.12Q19.82 63.91 18.95 63.59L18.95 63.59Q16.56 62.72 16.56 60.46L16.56 60.46L16.56 38.57Q16.56 37.65 17.04 37.14Q17.52 36.64 18.44 36.36L18.44 36.36Q19.96 35.86 22.22 35.60Q24.47 35.35 26.86 35.35L26.86 35.35Q32.61 35.35 35.74 37.30Q38.87 39.26 38.87 43.31ZM32.47 55.54L32.47 55.54Q32.47 52.28 28.29 52.28L28.29 52.28L23.55 52.28L23.55 58.72Q24.29 58.90 25.39 58.99Q26.49 59.09 27.51 59.09L27.51 59.09Q29.71 59.09 31.09 58.23Q32.47 57.38 32.47 55.54ZM23.55 41.05L23.55 47.17L27.83 47.17Q29.62 47.17 30.63 46.34Q31.65 45.52 31.65 43.91L31.65 43.91Q31.65 42.43 30.47 41.63Q29.30 40.82 26.95 40.82L26.95 40.82Q26.08 40.82 25.11 40.89Q24.15 40.96 23.55 41.05L23.55 41.05ZM67.11 45.05L67.11 45.05Q67.11 47.72 65.71 49.84Q64.31 51.95 61.91 53.20L61.91 53.20Q63.80 55.68 65.53 57.87Q67.25 60.05 68.08 61.38L68.08 61.38Q67.66 62.86 66.54 63.62Q65.41 64.38 64.08 64.38L64.08 64.38Q62.33 64.38 61.41 63.62Q60.49 62.86 59.66 61.52L59.66 61.52L55.24 54.67L52.07 54.67L52.07 63.91Q51.56 64.05 50.64 64.17Q49.72 64.28 48.71 64.28L48.71 64.28Q46.55 64.28 45.70 63.55Q44.85 62.81 44.85 60.88L44.85 60.88L44.85 38.57Q44.85 37.65 45.33 37.14Q45.81 36.64 46.73 36.36L46.73 36.36Q48.21 35.81 50.28 35.58Q52.35 35.35 54.60 35.35L54.60 35.35Q60.86 35.35 63.98 37.95Q67.11 40.55 67.11 45.05ZM51.98 49.10L54.83 49.10Q57.04 49.10 58.42 48.11Q59.80 47.13 59.80 45.10L59.80 45.10Q59.80 41.14 54.51 41.14L54.51 41.14Q53.77 41.14 53.17 41.21Q52.58 41.28 51.98 41.38L51.98 41.38L51.98 49.10ZM89.28 61.57L88.18 57.84L79.16 57.84Q78.66 59.50 78.22 61.11Q77.78 62.72 77.46 63.96L77.46 63.96Q76.86 64.14 76.22 64.28Q75.58 64.42 74.66 64.42L74.66 64.42Q72.63 64.42 71.60 63.71Q70.56 62.99 70.56 61.66L70.56 61.66Q70.56 61.02 70.75 60.42Q70.93 59.82 71.16 59.04L71.16 59.04Q71.48 57.80 72.08 55.96Q72.68 54.12 73.39 51.98Q74.10 49.84 74.89 47.58Q75.67 45.33 76.40 43.28Q77.14 41.24 77.74 39.53Q78.34 37.83 78.75 36.82L78.75 36.82Q79.44 36.41 80.89 36.04Q82.34 35.67 83.76 35.67L83.76 35.67Q85.83 35.67 87.42 36.25Q89.01 36.82 89.47 38.16L89.47 38.16Q90.34 40.59 91.35 43.81Q92.37 47.03 93.40 50.44Q94.44 53.84 95.40 57.15Q96.37 60.46 97.10 63.09L97.10 63.09Q96.60 63.68 95.61 64.05Q94.62 64.42 93.24 64.42L93.24 64.42Q91.26 64.42 90.46 63.73Q89.65 63.04 89.28 61.57L89.28 61.57ZM83.99 42.11L83.72 42.11Q83.07 44.18 82.13 46.83Q81.19 49.47 80.36 52.23L80.36 52.23L86.94 52.23Q86.16 49.33 85.35 46.69Q84.55 44.04 83.99 42.11L83.99 42.11Z" fill="#f8efef"></path></svg>